<svg xmlns="http://www.w3.org/2000/svg" viewBox="0 0 512 512">
  <path fill="#2563eb" d="M464 256h-80v-64c0-35.3-28.7-64-64-64h-8c-13.3 0-24-10.7-24-24V72c0-13.3-10.7-24-24-24h-176C44.2 48 16 76.2 16 112v248c0 13.3 10.7 24 24 24h24c0 39.8 32.2 72 72 72s72-32.2 72-72h128c0 39.8 32.2 72 72 72s72-32.2 72-72h16c13.3 0 24-10.7 24-24v-80c0-26.5-21.5-48-48-48zM136 416c-17.7 0-32-14.3-32-32s14.3-32 32-32 32 14.3 32 32-14.3 32-32 32zm272 0c-17.7 0-32-14.3-32-32s14.3-32 32-32 32 14.3 32 32-14.3 32-32 32z"/>
  <path fill="#60a5fa" d="M352 160h48c8.8 0 16 7.2 16 16v48h-64v-64z"/>
</svg>